<?xml version="1.0" standalone="no"?>
<!DOCTYPE svg PUBLIC "-//W3C//DTD SVG 20010904//EN"
 "http://www.w3.org/TR/2001/REC-SVG-20010904/DTD/svg10.dtd">
<svg version="1.0" xmlns="http://www.w3.org/2000/svg"
 width="300.000000pt" height="300.000000pt" viewBox="0 0 300.000000 300.000000"
 preserveAspectRatio="xMidYMid meet">
<metadata>
Created by potrace 1.11, written by Peter Selinger 2001-2013
</metadata>
<g transform="translate(0.000000,300.000000) scale(0.100000,-0.100000)"
fill="#000000" stroke="none">
<path d="M1235 2975 c-164 -30 -255 -60 -383 -124 -173 -86 -267 -154 -402
-290 -279 -281 -408 -558 -441 -941 -32 -385 81 -756 320 -1051 245 -303 559
-488 936 -550 109 -18 154 -20 280 -15 83 3 166 8 185 11 217 34 417 112 600
234 158 106 357 317 459 487 253 420 277 976 61 1416 -212 433 -632 748 -1095
823 -112 18 -421 18 -520 0z m-265 -370 l0 -45 40 0 40 0 0 -40 0 -40 45 0 45
0 0 -40 0 -40 -45 0 -45 0 0 40 0 40 -40 0 -40 0 0 40 0 40 -165 0 -165 0 0
45 0 45 165 0 165 0 0 -45z m-170 -165 l0 -40 45 0 45 0 0 -125 0 -125 -45 0
-45 0 0 -40 0 -40 -40 0 -40 0 0 80 0 80 -40 0 -40 0 0 125 0 125 80 0 80 0 0
-40z m1670 0 l0 -40 -125 0 -125 0 0 -40 0 -40 -85 0 -85 0 0 -45 0 -45 -40 0
-40 0 0 45 0 45 40 0 40 0 0 40 0 40 85 0 85 0 0 40 0 40 125 0 125 0 0 -40z
m-750 -80 l0 -40 -210 0 -210 0 0 -45 0 -45 -40 0 -40 0 0 45 0 45 40 0 40 0
0 40 0 40 210 0 210 0 0 -40z m660 -250 l0 -210 -40 0 -40 0 0 40 0 40 -40 0
-40 0 0 45 0 45 -45 0 -45 0 0 40 0 40 45 0 45 0 0 40 0 40 40 0 40 0 0 45 0
45 40 0 40 0 0 -210z m-1410 -250 l0 -40 40 0 40 0 0 -45 0 -45 45 0 45 0 0
-125 0 -125 -45 0 -45 0 0 -80 0 -80 -80 0 -80 0 0 -85 0 -85 -45 0 -45 0 0
-40 0 -40 85 0 85 0 0 40 0 40 125 0 125 0 0 -40 0 -40 40 0 40 0 0 125 0 125
40 0 40 0 0 80 0 80 45 0 45 0 0 45 0 45 40 0 40 0 0 40 0 40 210 0 210 0 0
-40 0 -40 80 0 80 0 0 -85 0 -85 45 0 45 0 0 -80 0 -80 40 0 40 0 0 -210 0
-210 -40 0 -40 0 0 -85 0 -85 -45 0 -45 0 0 -40 0 -40 -40 0 -40 0 0 85 0 85
-40 0 -40 0 0 -85 0 -85 -85 0 -85 0 0 -40 0 -40 85 0 85 0 0 -40 0 -40 -45 0
-45 0 0 -45 0 -45 -40 0 -40 0 0 -40 0 -40 -40 0 -40 0 0 -85 0 -85 -85 0 -85
0 0 45 0 45 -40 0 -40 0 0 165 0 165 40 0 40 0 0 80 0 80 -40 0 -40 0 0 -40 0
-40 -45 0 -45 0 0 -40 0 -40 -205 0 -205 0 0 40 0 40 40 0 40 0 0 40 0 40 45
0 45 0 0 85 0 85 -45 0 -45 0 0 -40 0 -40 -80 0 -80 0 0 40 0 40 80 0 80 0 0
40 0 40 -205 0 -205 0 0 -40 0 -40 -45 0 -45 0 0 -40 0 -40 -125 0 -125 0 0
80 0 80 45 0 45 0 0 45 0 45 80 0 80 0 0 40 0 40 -80 0 -80 0 0 125 0 125 40
0 40 0 0 40 0 40 40 0 40 0 0 165 0 165 45 0 45 0 0 45 0 45 40 0 40 0 0 40 0
40 125 0 125 0 0 -40z"/>
<path d="M800 1610 l0 -40 -40 0 -40 0 0 -45 0 -45 -40 0 -40 0 0 -120 0 -120
40 0 40 0 0 -45 0 -45 40 0 40 0 0 45 0 45 -40 0 -40 0 0 120 0 120 40 0 40 0
0 45 0 45 85 0 85 0 0 -45 0 -45 40 0 40 0 0 45 0 45 -40 0 -40 0 0 40 0 40
-85 0 -85 0 0 -40z"/>
<path d="M1550 1440 l0 -40 -40 0 -40 0 0 -80 0 -80 -45 0 -45 0 0 -85 0 -85
-40 0 -40 0 0 -40 0 -40 40 0 40 0 0 -45 0 -45 45 0 45 0 0 -40 0 -40 165 0
165 0 0 -40 0 -40 85 0 85 0 0 40 0 40 -85 0 -85 0 0 40 0 40 40 0 40 0 0 45
0 45 45 0 45 0 0 125 0 125 -45 0 -45 0 0 80 0 80 -40 0 -40 0 0 40 0 40 -125
0 -125 0 0 -40z m250 -120 l0 -80 40 0 40 0 0 -125 0 -125 -40 0 -40 0 0 -45
0 -45 -85 0 -85 0 0 125 0 125 -80 0 -80 0 0 45 0 45 40 0 40 0 0 80 0 80 125
0 125 0 0 -80z"/>
<path d="M640 1030 l0 -40 -45 0 -45 0 0 -45 0 -45 45 0 45 0 0 45 0 45 80 0
80 0 0 40 0 40 -80 0 -80 0 0 -40z"/>
<path d="M1380 695 l0 -45 45 0 45 0 0 45 0 45 -45 0 -45 0 0 -45z"/>
<path d="M1550 450 l0 -40 125 0 125 0 0 40 0 40 -125 0 -125 0 0 -40z"/>
</g>
</svg>
